<svg xmlns="http://www.w3.org/2000/svg" width="1238.4" height="1150.35" viewBox="0 0 1238.4 1150.35"><defs><style>.cls-1{fill:#edebb2;}.cls-2{fill:#af2e2e;}.cls-3{fill:#e5422c;}.cls-4{fill:#56568f;}.cls-5{fill:#ffaf1c;}.cls-6{fill:#ffcb7a;}</style></defs><title>Asset 4</title><g id="Layer_2" data-name="Layer 2"><g id="Layer_1-2" data-name="Layer 1"><ellipse class="cls-1" cx="621.91" cy="302" rx="194.5" ry="136"/><path class="cls-2" d="M909.08,560.5c0,199.1-120.88,360.5-270,360.5s-270-161.4-270-360.5c0-96.52,28.41-184.18,74.67-248.88a217.07,217.07,0,0,0,390.66,0C880.67,376.32,909.08,464,909.08,560.5Z" transform="translate(-20.67)"/><path class="cls-2" d="M856.08,217a216,216,0,0,1-21.67,94.62C785.24,242.84,715.91,200,639.08,200S492.92,242.84,443.75,311.62A216,216,0,0,1,422.08,217c0-119.85,97.15-217,217-217S856.08,97.15,856.08,217Z" transform="translate(-20.67)"/><path class="cls-3" d="M585.28,352a81.07,81.07,0,0,1,6-29.13c11.7,21.51,28.55,35.11,47.53,35.5s36.37-12.49,49-33.49a81,81,0,0,1,4.74,29.35c-.77,37-25.39,66.56-55,65.95S584.51,389.05,585.28,352Z" transform="translate(-20.67)"/><path class="cls-4" d="M542.34,277.47a20.55,20.55,0,0,1,2.47-9.37c5,6.95,12.2,11.37,20.26,11.54s15.43-3.95,20.74-10.69a20.71,20.71,0,0,1,2.07,9.47c-.24,11.93-10.64,21.39-23.22,21.13S542.09,289.4,542.34,277.47Z" transform="translate(-20.67)"/><path class="cls-4" d="M662.34,272.47a20.55,20.55,0,0,1,2.47-9.37c5,6.95,12.2,11.37,20.26,11.54s15.43-3.95,20.74-10.69a20.71,20.71,0,0,1,2.07,9.47c-.24,11.93-10.64,21.39-23.22,21.13S662.09,284.4,662.34,272.47Z" transform="translate(-20.67)"/><g id="Layer_2-2" data-name="Layer 2"><path class="cls-5" d="M431.59,483.15C415.25,471.92,408,472,401.92,472.92c-11.27,1.81-21.72,14.58-21,26.7,1.18,18.88,28.83,26.21,31.85,26.59,25.93,3.25,48.28-11.89,51.7-14.79C450.71,500.63,440.91,489.56,431.59,483.15Z" transform="translate(-20.67)"/><path class="cls-5" d="M494.52,465.13c7.61-18.3,6.09-25.4,3.89-31.14-4.09-10.66-18.75-18.25-30.45-15-18.23,5.05-19.7,33.61-19.45,36.65,2.17,26,21.59,44.78,25.14,47.54C481.36,487.45,490.17,475.57,494.52,465.13Z" transform="translate(-20.67)"/><path class="cls-5" d="M524.92,526.47c19.31,4.5,26.06,1.83,31.36-1.3,9.83-5.79,14.9-21.49,9.77-32.51-8-17.15-36.4-13.88-39.36-13.13C501.37,486,486.08,508.21,484,512.17,500.74,517.18,513.9,523.91,524.92,526.47Z" transform="translate(-20.67)"/><path class="cls-5" d="M429.29,538.12c-17.35,9.58-20.58,16.09-22.43,22-3.42,10.89,3.33,25.95,14.51,30.69,17.41,7.4,36.33-14,38-16.59,14.51-21.73,11-48.49,9.9-52.86C453.47,528.83,439.19,532.65,429.29,538.12Z" transform="translate(-20.67)"/><path class="cls-5" d="M484.18,563.35c3.58,19.5,8.73,24.62,13.71,28.23,9.23,6.71,25.65,5.09,33.7-4,12.54-14.17-1.79-38.92-3.66-41.33-16-20.65-42.51-25.79-47-26.16C483.05,537.47,482.13,552.22,484.18,563.35Z" transform="translate(-20.67)"/><circle class="cls-6" cx="453.59" cy="512.98" r="9.81"/><path class="cls-5" d="M751.59,489.15C735.25,477.92,728,478,721.92,478.92c-11.27,1.81-21.72,14.58-21,26.7,1.18,18.88,28.83,26.21,31.85,26.59,25.93,3.25,48.28-11.89,51.7-14.79C770.71,506.63,760.91,495.56,751.59,489.15Z" transform="translate(-20.67)"/><path class="cls-5" d="M814.52,471.13c7.61-18.3,6.09-25.4,3.89-31.14-4.09-10.66-18.75-18.25-30.45-15-18.23,5.05-19.7,33.61-19.45,36.65,2.17,26,21.59,44.78,25.14,47.54C801.36,493.45,810.17,481.57,814.52,471.13Z" transform="translate(-20.67)"/><path class="cls-5" d="M844.92,532.47c19.31,4.5,26.06,1.83,31.36-1.3,9.83-5.79,14.9-21.49,9.77-32.51-8-17.15-36.4-13.88-39.36-13.13C821.37,492,806.08,514.21,804,518.17,820.74,523.18,833.9,529.91,844.92,532.47Z" transform="translate(-20.67)"/><path class="cls-5" d="M749.29,544.12c-17.35,9.58-20.58,16.09-22.43,22-3.42,10.89,3.33,25.95,14.51,30.69,17.41,7.4,36.33-14,38-16.59,14.51-21.73,11-48.49,9.9-52.86C773.47,534.83,759.19,538.65,749.29,544.12Z" transform="translate(-20.67)"/><path class="cls-5" d="M804.18,569.35c3.58,19.5,8.73,24.62,13.71,28.23,9.23,6.71,25.65,5.09,33.7-4,12.54-14.17-1.79-38.92-3.66-41.33-16-20.65-42.51-25.79-47-26.16C803.05,543.47,802.13,558.22,804.18,569.35Z" transform="translate(-20.67)"/><circle class="cls-6" cx="773.59" cy="518.98" r="9.81"/><path class="cls-5" d="M573.59,655.15C557.25,643.92,550,644,543.92,644.92c-11.27,1.81-21.72,14.58-21,26.7,1.18,18.88,28.83,26.21,31.85,26.59,25.93,3.25,48.28-11.89,51.7-14.79C592.71,672.63,582.91,661.56,573.59,655.15Z" transform="translate(-20.67)"/><path class="cls-5" d="M636.52,637.13c7.61-18.3,6.09-25.4,3.89-31.14-4.09-10.66-18.75-18.25-30.45-15-18.23,5-19.7,33.61-19.45,36.65,2.17,26,21.59,44.78,25.14,47.54C623.36,659.45,632.17,647.57,636.52,637.13Z" transform="translate(-20.67)"/><path class="cls-5" d="M666.92,698.47c19.31,4.5,26.06,1.83,31.36-1.3,9.83-5.79,14.9-21.49,9.77-32.51-8-17.15-36.4-13.88-39.36-13.13C643.37,658,628.08,680.21,626,684.17,642.74,689.18,655.9,695.91,666.92,698.47Z" transform="translate(-20.67)"/><path class="cls-5" d="M571.29,710.12c-17.35,9.58-20.58,16.09-22.43,22-3.42,10.89,3.33,25.95,14.51,30.69,17.41,7.4,36.33-14,38-16.59,14.51-21.73,11-48.49,9.9-52.86C595.47,700.83,581.19,704.65,571.29,710.12Z" transform="translate(-20.67)"/><path class="cls-5" d="M626.18,735.35c3.58,19.5,8.73,24.62,13.71,28.23,9.23,6.71,25.65,5.09,33.7-4,12.54-14.17-1.79-38.92-3.66-41.33-16-20.65-42.51-25.79-47-26.16C625.05,709.47,624.13,724.22,626.18,735.35Z" transform="translate(-20.67)"/><circle class="cls-6" cx="595.59" cy="684.98" r="9.81"/><path d="M20.67,966.48c10.34-2.18,26.66-3.81,43.25-3.81,23.66,0,38.9,4.08,50.32,13.33,9.52,7.07,15.23,18,15.23,32.36,0,17.68-11.69,33.19-31,40.26v.54c17.4,4.36,37.8,18.77,37.8,46a49.39,49.39,0,0,1-15.5,36.72C108,1143.55,87.31,1149,57.39,1149a276.17,276.17,0,0,1-36.72-2.18Zm23.67,75.07H65.82c25,0,39.72-13.06,39.72-30.74,0-21.49-16.32-29.92-40.26-29.92-10.88,0-17.14.82-20.94,1.63Zm0,87.86c4.62.81,11.42,1.08,19.85,1.08,24.48,0,47.06-9,47.06-35.63,0-25-21.49-35.36-47.33-35.36H44.34Z" transform="translate(-20.67)"/><path d="M197.74,1089.69l-19,57.67H154.22L216.51,964h28.56l62.56,183.33H282.34l-19.59-57.67Zm60.11-18.49-18-52.77c-4.08-12-6.8-22.85-9.52-33.46h-.54c-2.72,10.88-5.71,22-9.25,33.19l-18,53Z" transform="translate(-20.67)"/><path d="M334.56,966.48c10.33-2.18,26.65-3.81,43.25-3.81,23.66,0,38.89,4.08,50.32,13.33,9.52,7.07,15.23,18,15.23,32.36,0,17.68-11.7,33.19-31,40.26v.54c17.41,4.36,37.81,18.77,37.81,46a49.43,49.43,0,0,1-15.5,36.72c-12.79,11.7-33.46,17.14-63.38,17.14a276.17,276.17,0,0,1-36.72-2.18Zm23.66,75.07h21.49c25,0,39.71-13.06,39.71-30.74,0-21.49-16.32-29.92-40.25-29.92-10.88,0-17.14.82-20.95,1.63Zm0,87.86c4.63.81,11.43,1.08,19.86,1.08,24.48,0,47.05-9,47.05-35.63,0-25-21.48-35.36-47.32-35.36H358.22Z" transform="translate(-20.67)"/><path d="M505.64,964v108.53c0,41.07,18.23,58.48,42.71,58.48,27.2,0,44.61-18,44.61-58.48V964h23.93v106.89c0,56.31-29.64,79.43-69.36,79.43-37.53,0-65.82-21.49-65.82-78.34V964Z" transform="translate(-20.67)"/><path d="M654.7,1118.53a83.9,83.9,0,0,0,42.43,12c24.21,0,38.35-12.78,38.35-31.28,0-17.13-9.79-26.92-34.54-36.44-29.92-10.61-48.42-26.12-48.42-52,0-28.56,23.66-49.77,59.3-49.77,18.76,0,32.37,4.35,40.53,9l-6.53,19.31a73.12,73.12,0,0,0-34.82-8.7c-25,0-34.54,15-34.54,27.47,0,17.14,11.15,25.57,36.45,35.36,31,12,46.78,26.93,46.78,53.86,0,28.29-20.94,52.77-64.19,52.77-17.68,0-37-5.17-46.79-11.7Z" transform="translate(-20.67)"/><path d="M815.72,964v76.7h88.67V964h23.94v183.33H904.39v-86H815.72v86H792.05V964Z" transform="translate(-20.67)"/><path d="M969.4,964h23.66v88.4h.82c4.89-7.07,9.79-13.6,14.41-19.59l56-68.81h29.37l-66.37,77.79,71.54,105.54h-28l-60.38-90-17.41,20.13v69.91H969.4Z" transform="translate(-20.67)"/><path d="M1149.19,1089.69l-19,57.67h-24.48L1168,964h28.56l62.57,183.33h-25.3l-19.59-57.67Zm60.11-18.49-18-52.77c-4.08-12-6.8-22.85-9.52-33.46h-.55c-2.72,10.88-5.71,22-9.25,33.19l-18,53Z" transform="translate(-20.67)"/><path d="M970.68,841a101.84,101.84,0,0,1,19.24-1.69c10.52,0,17.3,1.81,22.38,5.93,4.24,3.14,6.78,8,6.78,14.4,0,7.86-5.21,14.76-13.8,17.9v.25c7.75,1.93,16.82,8.35,16.82,20.45a22,22,0,0,1-6.89,16.33c-5.69,5.2-14.89,7.62-28.2,7.62a124,124,0,0,1-16.33-1Zm10.52,33.4h9.56c11.14,0,17.67-5.81,17.67-13.67,0-9.56-7.26-13.31-17.91-13.31a45.6,45.6,0,0,0-9.32.72Zm0,39.08a55.4,55.4,0,0,0,8.84.49c10.89,0,20.93-4,20.93-15.85,0-11.14-9.56-15.74-21.05-15.74H981.2Z" transform="translate(-20.67)"/><path d="M1047.75,846.41c.12,3.63-2.54,6.53-6.77,6.53a6.33,6.33,0,0,1-6.42-6.53,6.5,6.5,0,0,1,6.66-6.66A6.32,6.32,0,0,1,1047.75,846.41Zm-11.86,75V862.86h10.65v58.57Z" transform="translate(-20.67)"/><path d="M1062.76,910.54a27.85,27.85,0,0,0,14,4.23c7.75,0,11.38-3.87,11.38-8.71,0-5.08-3-7.86-10.89-10.77-10.53-3.75-15.49-9.56-15.49-16.58,0-9.43,7.62-17.18,20.21-17.18a29.26,29.26,0,0,1,14.39,3.63l-2.66,7.75a22.8,22.8,0,0,0-12-3.39c-6.29,0-9.8,3.63-9.8,8,0,4.84,3.51,7,11.13,9.93,10.17,3.87,15.37,9,15.37,17.66,0,10.29-8,17.55-21.9,17.55a33.44,33.44,0,0,1-16.46-4Z" transform="translate(-20.67)"/><path d="M1125,846v16.82h15.25V871H1125v31.58c0,7.26,2.06,11.38,8,11.38a23.79,23.79,0,0,0,6.17-.73l.48,8a26.23,26.23,0,0,1-9.44,1.45c-5,0-9-1.57-11.49-4.48-3-3.14-4.12-8.35-4.12-15.24V871h-9.07v-8.11h9.07v-14Z" transform="translate(-20.67)"/><path d="M1152.17,881.13c0-6.89-.12-12.82-.48-18.27H1161l.36,11.5h.48c2.67-7.87,9.08-12.83,16.22-12.83a11.1,11.1,0,0,1,3,.37v10a16.08,16.08,0,0,0-3.63-.36c-7.5,0-12.82,5.68-14.27,13.67a29.12,29.12,0,0,0-.49,5v31.22h-10.53Z" transform="translate(-20.67)"/><path d="M1243.53,891.66c0,21.66-15,31.1-29.16,31.1-15.85,0-28.07-11.62-28.07-30.13,0-19.6,12.82-31.1,29-31.1C1232.16,861.53,1243.53,873.75,1243.53,891.66Zm-46.46.61c0,12.82,7.38,22.5,17.78,22.5,10.17,0,17.79-9.56,17.79-22.74,0-9.93-5-22.51-17.55-22.51S1197.07,881.13,1197.07,892.27Z" transform="translate(-20.67)"/></g></g></g></svg>
